<svg xmlns="http://www.w3.org/2000/svg" width="1600" height="950" viewBox="0 0 1600 950">
  <defs>
    <style>
      .title{font-family:Avenir Next,Arial,sans-serif;font-size:38px;font-weight:800;fill:#111827}
      .subtitle{font-family:Avenir Next,Arial,sans-serif;font-size:21px;font-weight:500;fill:#4b5563}
      .section{font-family:Avenir Next,Arial,sans-serif;font-size:24px;font-weight:800;fill:#111827}
      .label{font-family:Avenir Next,Arial,sans-serif;font-size:18px;font-weight:700;fill:#111827}
      .body{font-family:Avenir Next,Arial,sans-serif;font-size:17px;font-weight:500;fill:#374151}
      .small{font-family:Avenir Next,Arial,sans-serif;font-size:14px;font-weight:600;fill:#475569}
      .tiny{font-family:Avenir Next,Arial,sans-serif;font-size:12px;font-weight:700;fill:#64748b}
      .mono{font-family:Menlo,Consolas,monospace;font-size:15px;font-weight:600;fill:#111827}
      .monoSmall{font-family:Menlo,Consolas,monospace;font-size:12px;font-weight:600;fill:#334155}
      .card{fill:#ffffff;stroke:#d8dee8;stroke-width:2}
      .blue{fill:#eff6ff;stroke:#2563eb;stroke-width:2.5}
      .orange{fill:#fff7ed;stroke:#ea580c;stroke-width:2.5}
      .teal{fill:#ecfdf5;stroke:#0f766e;stroke-width:2.5}
      .purple{fill:#f5f3ff;stroke:#7c3aed;stroke-width:2.5}
      .red{fill:#fef2f2;stroke:#dc2626;stroke-width:2.5}
      .gray{fill:#f8fafc;stroke:#cbd5e1;stroke-width:2}
    </style>
    <filter id="shadow" x="-15%" y="-20%" width="130%" height="150%">
      <feDropShadow dx="0" dy="6" stdDeviation="7" flood-color="#0f172a" flood-opacity="0.10"/>
    </filter>
    <marker id="arrow" markerWidth="14" markerHeight="14" refX="12" refY="7" orient="auto">
      <path d="M0,0 L14,7 L0,14 Z" fill="#334155"/>
    </marker>
    <marker id="arrowBlue" markerWidth="14" markerHeight="14" refX="12" refY="7" orient="auto">
      <path d="M0,0 L14,7 L0,14 Z" fill="#2563eb"/>
    </marker>
    <marker id="arrowTeal" markerWidth="14" markerHeight="14" refX="12" refY="7" orient="auto">
      <path d="M0,0 L14,7 L0,14 Z" fill="#0f766e"/>
    </marker>
  </defs>
  <rect width="1600" height="950" fill="#f8fafc"/>
  <text x="70" y="72" class="title">Concept 5: the claim is a pattern across regimes, not one number</text>
  <text x="70" y="108" class="subtitle">Strict-protocol numbers support the deployment-relevant workflow-conditioning claim; controls test whether the token carries semantic information.</text>

  <rect x="75" y="165" width="690" height="310" rx="26" class="card" filter="url(#shadow)"/>
  <text x="110" y="215" class="section">MB140 within-center, strict prefix-only</text>
  <text x="110" y="250" class="body">Fold 0, 3 seeds; decoupled-oracle is the headline strict result.</text>
  <line x1="145" y1="400" x2="690" y2="400" stroke="#cbd5e1" stroke-width="3"/>
  <rect x="210" y="285" width="110" height="115" fill="#94a3b8"/><text x="265" y="430" text-anchor="middle" class="label">13.03</text><text x="265" y="455" text-anchor="middle" class="small">no token</text>
  <rect x="405" y="292" width="110" height="108" fill="#60a5fa"/><text x="460" y="430" text-anchor="middle" class="label">12.26</text><text x="460" y="455" text-anchor="middle" class="small">oracle</text>
  <rect x="600" y="300" width="110" height="100" fill="#0f766e"/><text x="655" y="430" text-anchor="middle" class="label">12.18</text><text x="655" y="455" text-anchor="middle" class="small">decoupled</text>
  <rect x="110" y="290" width="72" height="55" rx="14" class="teal"/>
  <text x="146" y="314" text-anchor="middle" class="label">-0.85</text>
  <text x="146" y="337" text-anchor="middle" class="tiny">min</text>

  <rect x="835" y="165" width="690" height="310" rx="26" class="card" filter="url(#shadow)"/>
  <text x="870" y="215" class="section">MB140 cross-center, strict prefix-only</text>
  <text x="870" y="250" class="body">Train Bern, validate Strasbourg, 3 seeds.</text>
  <line x1="905" y1="400" x2="1450" y2="400" stroke="#cbd5e1" stroke-width="3"/>
  <rect x="970" y="285" width="110" height="115" fill="#94a3b8"/><text x="1025" y="430" text-anchor="middle" class="label">17.80</text><text x="1025" y="455" text-anchor="middle" class="small">no token</text>
  <rect x="1165" y="292" width="110" height="108" fill="#60a5fa"/><text x="1220" y="430" text-anchor="middle" class="label">17.71</text><text x="1220" y="455" text-anchor="middle" class="small">oracle</text>
  <rect x="1360" y="315" width="110" height="85" fill="#0f766e"/><text x="1415" y="430" text-anchor="middle" class="label">17.33</text><text x="1415" y="455" text-anchor="middle" class="small">decoupled</text>
  <rect x="870" y="290" width="72" height="55" rx="14" class="teal"/>
  <text x="906" y="314" text-anchor="middle" class="label">-0.47</text>
  <text x="906" y="337" text-anchor="middle" class="tiny">min</text>

  <rect x="75" y="535" width="690" height="270" rx="26" class="card" filter="url(#shadow)"/>
  <text x="110" y="585" class="section">Cholec80 contrast case</text>
  <text x="110" y="620" class="body">Strict single-seed range is 0.08 min: no meaningful workflow-conditioning effect.</text>
  <rect x="130" y="665" width="160" height="70" rx="18" class="gray"/><text x="210" y="693" text-anchor="middle" class="label">4.34</text><text x="210" y="718" text-anchor="middle" class="small">no token</text>
  <rect x="330" y="665" width="160" height="70" rx="18" class="gray"/><text x="410" y="693" text-anchor="middle" class="label">4.33</text><text x="410" y="718" text-anchor="middle" class="small">oracle</text>
  <rect x="530" y="665" width="160" height="70" rx="18" class="gray"/><text x="610" y="693" text-anchor="middle" class="label">4.26</text><text x="610" y="718" text-anchor="middle" class="small">prefix</text>
  <text x="110" y="770" class="small">Centered-window teacher-forced prefix was worse (5.03 vs 4.61).</text>
  <text x="110" y="792" class="small">That negative effect does not reproduce under the strict protocol.</text>

  <rect x="835" y="535" width="690" height="270" rx="26" class="card" filter="url(#shadow)"/>
  <text x="870" y="585" class="section">Shuffled-token semantic control</text>
  <text x="870" y="620" class="body">If any extra vector helped, shuffled tokens should help. They do not.</text>
  <line x1="900" y1="735" x2="1465" y2="735" stroke="#cbd5e1" stroke-width="3"/>
  <rect x="955" y="635" width="105" height="100" fill="#94a3b8"/><text x="1007" y="765" text-anchor="middle" class="label">13.03</text><text x="1007" y="790" text-anchor="middle" class="small">no token</text>
  <rect x="1165" y="625" width="105" height="110" fill="#f97316"/><text x="1217" y="765" text-anchor="middle" class="label">13.14</text><text x="1217" y="790" text-anchor="middle" class="small">shuffled</text>
  <rect x="1375" y="680" width="105" height="55" fill="#0f766e"/><text x="1427" y="765" text-anchor="middle" class="label">12.18</text><text x="1427" y="790" text-anchor="middle" class="small">real token</text>
</svg>
