<svg xmlns="http://www.w3.org/2000/svg" width="1600" height="950" viewBox="0 0 1600 950">
  <defs>
    <style>
      .title{font-family:Avenir Next,Arial,sans-serif;font-size:46px;font-weight:800;fill:#111827}
      .subtitle{font-family:Avenir Next,Arial,sans-serif;font-size:24px;font-weight:500;fill:#4b5563}
      .label{font-family:Avenir Next,Arial,sans-serif;font-size:22px;font-weight:700;fill:#111827}
      .body{font-family:Avenir Next,Arial,sans-serif;font-size:19px;font-weight:500;fill:#374151}
      .small{font-family:Avenir Next,Arial,sans-serif;font-size:16px;font-weight:500;fill:#4b5563}
      .white{font-family:Avenir Next,Arial,sans-serif;font-size:20px;font-weight:800;fill:white}
    </style>
    <filter id="shadow" x="-20%" y="-20%" width="140%" height="140%">
      <feDropShadow dx="0" dy="8" stdDeviation="10" flood-color="#0f172a" flood-opacity="0.12"/>
    </filter>
  </defs>
  <rect width="1600" height="950" fill="#f8fafc"/>
  <text x="70" y="78" class="title">Concept 7: workflow conditioning scales with route diversity</text>
  <text x="72" y="120" class="subtitle">When most cases follow one template, the token adds little; when routes vary, it can reduce RSD error.</text>

  <rect x="95" y="180" width="1410" height="610" rx="36" fill="#ffffff" stroke="#e5e7eb" stroke-width="2" filter="url(#shadow)"/>
  <line x1="210" y1="695" x2="1360" y2="695" stroke="#1f2937" stroke-width="4"/>
  <line x1="210" y1="695" x2="210" y2="265" stroke="#1f2937" stroke-width="4"/>
  <text x="780" y="755" text-anchor="middle" class="label">workflow cluster entropy H(z)</text>
  <text x="85" y="475" text-anchor="middle" class="label" transform="rotate(-90 85 475)">workflow-token benefit</text>
  <text x="210" y="735" text-anchor="middle" class="small">low diversity</text>
  <text x="1360" y="735" text-anchor="middle" class="small">high diversity</text>

  <path d="M245 645 C430 650, 620 615, 820 520 S1130 350, 1320 315" fill="none" stroke="#0f766e" stroke-width="10" stroke-linecap="round"/>
  <path d="M250 655 C430 660, 615 640, 800 600" fill="none" stroke="#dc2626" stroke-width="5" stroke-dasharray="12 9"/>
  <circle cx="555" cy="625" r="18" fill="#ef4444"/><text x="460" y="618" text-anchor="end" class="label">Cholec80 prefix</text><text x="585" y="657" class="small">+0.42 min worse</text>
  <circle cx="555" cy="570" r="18" fill="#94a3b8"/><text x="555" y="535" text-anchor="middle" class="small">Cholec80 oracle null</text>
  <circle cx="1190" cy="410" r="20" fill="#0f766e"/><text x="1190" y="370" text-anchor="middle" class="label">MB140 cross-center</text><text x="1190" y="444" text-anchor="middle" class="small">-0.47 min</text>
  <circle cx="1280" cy="315" r="24" fill="#14b8a6"/><text x="1280" y="270" text-anchor="middle" class="label">MB140 fold 0</text><text x="1280" y="350" text-anchor="middle" class="small">-0.85 min</text>
  <circle cx="1110" cy="520" r="17" fill="#99f6e4" stroke="#0f766e" stroke-width="3"/><text x="1110" y="555" text-anchor="middle" class="small">5-fold avg -0.19</text>

  <rect x="275" y="305" width="270" height="150" rx="28" fill="#f1f5f9" stroke="#cbd5e1" stroke-width="2"/>
  <text x="410" y="350" text-anchor="middle" class="label">Cholec80</text>
  <text x="410" y="382" text-anchor="middle" class="body">51 / 12 / 6 / 3</text>
  <text x="410" y="414" text-anchor="middle" class="small">one cluster dominates</text>

  <rect x="1035" y="580" width="300" height="88" rx="28" fill="#ecfdf5" stroke="#0f766e" stroke-width="2"/>
  <text x="1185" y="615" text-anchor="middle" class="label">MB140</text>
  <text x="1185" y="648" text-anchor="middle" class="small">38 / 27 / 25 / 23 / 17 / 10</text>
</svg>
